<mxfile host="65bd71144e">
    <diagram id="5lSAF9-s-ClQ-ZAP8t-M" name="Page-1">
        <mxGraphModel dx="1079" dy="489" grid="1" gridSize="10" guides="1" tooltips="1" connect="1" arrows="1" fold="1" page="1" pageScale="1" pageWidth="850" pageHeight="1100" math="0" shadow="0">
            <root>
                <mxCell id="0"/>
                <mxCell id="1" parent="0"/>
                <mxCell id="2" value="" style="shape=tapeData;whiteSpace=wrap;html=1;perimeter=ellipsePerimeter;" parent="1" vertex="1">
                    <mxGeometry x="290" y="600" width="80" height="80" as="geometry"/>
                </mxCell>
                <mxCell id="45" style="edgeStyle=none;html=1;" parent="1" source="15" edge="1">
                    <mxGeometry relative="1" as="geometry">
                        <mxPoint x="730" y="720" as="targetPoint"/>
                    </mxGeometry>
                </mxCell>
                <mxCell id="15" value="Container" style="swimlane;" parent="1" vertex="1">
                    <mxGeometry x="425" y="600" width="200" height="200" as="geometry"/>
                </mxCell>
                <mxCell id="17" value="Gymnasium_ID" style="text;html=1;align=center;verticalAlign=middle;resizable=0;points=[];autosize=1;strokeColor=none;fillColor=none;" parent="15" vertex="1">
                    <mxGeometry x="40" y="50" width="110" height="30" as="geometry"/>
                </mxCell>
                <mxCell id="18" value="Name" style="text;html=1;align=center;verticalAlign=middle;resizable=0;points=[];autosize=1;strokeColor=none;fillColor=none;" parent="15" vertex="1">
                    <mxGeometry x="65" y="85" width="60" height="30" as="geometry"/>
                </mxCell>
                <mxCell id="19" value="Address" style="text;html=1;align=center;verticalAlign=middle;resizable=0;points=[];autosize=1;strokeColor=none;fillColor=none;" parent="1" vertex="1">
                    <mxGeometry x="575" y="548" width="70" height="30" as="geometry"/>
                </mxCell>
                <mxCell id="20" value="Phone Number" style="text;html=1;align=center;verticalAlign=middle;resizable=0;points=[];autosize=1;strokeColor=none;fillColor=none;" parent="1" vertex="1">
                    <mxGeometry x="560" y="588" width="100" height="30" as="geometry"/>
                </mxCell>
                <mxCell id="21" value="Member" style="swimlane;" parent="1" vertex="1">
                    <mxGeometry x="730" y="830" width="200" height="200" as="geometry"/>
                </mxCell>
                <mxCell id="25" value="Address" style="text;html=1;align=center;verticalAlign=middle;resizable=0;points=[];autosize=1;strokeColor=none;fillColor=none;" parent="21" vertex="1">
                    <mxGeometry x="65" y="128" width="70" height="30" as="geometry"/>
                </mxCell>
                <mxCell id="24" value="First Name" style="text;html=1;align=center;verticalAlign=middle;resizable=0;points=[];autosize=1;strokeColor=none;fillColor=none;" parent="21" vertex="1">
                    <mxGeometry x="55" y="98" width="80" height="30" as="geometry"/>
                </mxCell>
                <mxCell id="23" value="Last Name" style="text;html=1;align=center;verticalAlign=middle;resizable=0;points=[];autosize=1;strokeColor=none;fillColor=none;" parent="21" vertex="1">
                    <mxGeometry x="55" y="68" width="80" height="30" as="geometry"/>
                </mxCell>
                <mxCell id="22" value="Member_ID" style="text;html=1;align=center;verticalAlign=middle;resizable=0;points=[];autosize=1;strokeColor=none;fillColor=none;" parent="21" vertex="1">
                    <mxGeometry x="50" y="38" width="90" height="30" as="geometry"/>
                </mxCell>
                <mxCell id="26" value="Date of Birth" style="text;html=1;align=center;verticalAlign=middle;resizable=0;points=[];autosize=1;strokeColor=none;fillColor=none;" parent="21" vertex="1">
                    <mxGeometry x="50" y="158" width="90" height="30" as="geometry"/>
                </mxCell>
                <mxCell id="27" value="Attributes" style="swimlane;" parent="1" vertex="1">
                    <mxGeometry x="425" y="830" width="200" height="200" as="geometry"/>
                </mxCell>
                <mxCell id="28" value="Session_ID" style="text;html=1;align=center;verticalAlign=middle;resizable=0;points=[];autosize=1;strokeColor=none;fillColor=none;" parent="27" vertex="1">
                    <mxGeometry x="50" y="50" width="80" height="30" as="geometry"/>
                </mxCell>
                <mxCell id="31" value="Max Members " style="text;html=1;align=center;verticalAlign=middle;resizable=0;points=[];autosize=1;strokeColor=none;fillColor=none;" parent="27" vertex="1">
                    <mxGeometry x="50" y="150" width="100" height="30" as="geometry"/>
                </mxCell>
                <mxCell id="30" value="Schedule" style="text;html=1;align=center;verticalAlign=middle;resizable=0;points=[];autosize=1;strokeColor=none;fillColor=none;" parent="27" vertex="1">
                    <mxGeometry x="60" y="110" width="70" height="30" as="geometry"/>
                </mxCell>
                <mxCell id="29" value="Sport Type" style="text;html=1;align=center;verticalAlign=middle;resizable=0;points=[];autosize=1;strokeColor=none;fillColor=none;" parent="27" vertex="1">
                    <mxGeometry x="55" y="80" width="80" height="30" as="geometry"/>
                </mxCell>
                <mxCell id="32" value="Coach" style="swimlane;" parent="1" vertex="1">
                    <mxGeometry x="730" y="600" width="200" height="200" as="geometry"/>
                </mxCell>
                <mxCell id="36" value="Age" style="text;html=1;align=center;verticalAlign=middle;resizable=0;points=[];autosize=1;strokeColor=none;fillColor=none;" parent="32" vertex="1">
                    <mxGeometry x="70" y="148" width="40" height="30" as="geometry"/>
                </mxCell>
                <mxCell id="35" value="First Name" style="text;html=1;align=center;verticalAlign=middle;resizable=0;points=[];autosize=1;strokeColor=none;fillColor=none;" parent="32" vertex="1">
                    <mxGeometry x="50" y="120" width="80" height="30" as="geometry"/>
                </mxCell>
                <mxCell id="34" value="Last Name" style="text;html=1;align=center;verticalAlign=middle;resizable=0;points=[];autosize=1;strokeColor=none;fillColor=none;" parent="32" vertex="1">
                    <mxGeometry x="50" y="85" width="80" height="30" as="geometry"/>
                </mxCell>
                <mxCell id="33" value="Coach_ID" style="text;html=1;align=center;verticalAlign=middle;resizable=0;points=[];autosize=1;strokeColor=none;fillColor=none;" parent="32" vertex="1">
                    <mxGeometry x="50" y="55" width="80" height="30" as="geometry"/>
                </mxCell>
            </root>
        </mxGraphModel>
    </diagram>
</mxfile>